<svg xmlns="http://www.w3.org/2000/svg" viewBox="0 0 200 200"><path fill="#0F62FE33" d="M42.9,-75.3C55.9,-66.8,66.9,-55.9,75.5,-42.9C84.1,-30,90.4,-15,90.3,-0.1C90.2,14.8,83.7,29.7,75.8,44C68,58.4,58.8,72.2,46,81.2C33.1,90.2,16.6,94.2,0.6,93.2C-15.4,92.2,-30.7,86,-45,77.9C-59.3,69.7,-72.4,59.5,-79.5,46.2C-86.6,32.9,-87.7,16.5,-87.4,0.1C-87.2,-16.2,-85.6,-32.3,-78.6,-45.9C-71.7,-59.5,-59.3,-70.4,-45.3,-78.3C-31.3,-86.2,-15.7,-91,-0.4,-90.4C15,-89.8,29.9,-83.7,42.9,-75.3Z" transform="translate(100 100)"/><path xmlns="http://www.w3.org/2000/svg" fill="#0F62FE33" d="M65.3,-53.2C78.6,-35.4,79.1,-8.6,73.1,16.3C67.1,41.3,54.6,64.4,34.3,76C14,87.6,-14.1,87.6,-35.6,76.3C-57.1,65,-72,42.4,-77.8,17.6C-83.6,-7.3,-80.3,-34.4,-65.8,-52.4C-51.4,-70.5,-25.7,-79.5,0.2,-79.6C26,-79.8,52,-71,65.3,-53.2Z" transform="translate(100 100)"/></svg>