<svg width="19" height="20" viewBox="0 0 19 20" fill="none" xmlns="http://www.w3.org/2000/svg">
<g clip-path="url(#clip0_80_62)">
<path d="M15.2967 4.14421C15.1764 4.07978 15.0594 4.00915 14.946 3.93258C14.6162 3.70651 14.3138 3.44012 14.0453 3.13917C13.3737 2.3423 13.1228 1.53388 13.0304 0.967877H13.0341C12.9569 0.498065 12.9888 0.194092 12.9937 0.194092H9.93436V12.46C9.93436 12.6247 9.93436 12.7874 9.92768 12.9483C9.92768 12.9683 9.92582 12.9868 9.92471 13.0083C9.92471 13.0172 9.92471 13.0264 9.92285 13.0356V13.0425C9.89061 13.4826 9.75455 13.9078 9.52664 14.2806C9.29874 14.6533 8.98597 14.9623 8.61586 15.1804C8.23013 15.4079 7.79385 15.5273 7.35006 15.5267C5.92469 15.5267 4.76947 14.3215 4.76947 12.8332C4.76947 11.3449 5.92469 10.1398 7.35006 10.1398C7.61988 10.1395 7.88803 10.1836 8.14457 10.2702L8.14828 7.04042C7.36949 6.93611 6.57831 7.00029 5.82463 7.2289C5.07096 7.45751 4.37116 7.84559 3.76938 8.36867C3.24208 8.84371 2.79877 9.41053 2.45942 10.0436C2.33028 10.2745 1.84303 11.2022 1.78403 12.7078C1.74692 13.5624 1.99444 14.4478 2.11244 14.8137V14.8214C2.18666 15.0368 2.47426 15.7722 2.94295 16.392C3.32089 16.8893 3.76741 17.3261 4.26813 17.6883V17.6806L4.27555 17.6883C5.75658 18.7319 7.39867 18.6634 7.39867 18.6634C7.68293 18.6514 8.63516 18.6634 9.71653 18.132C10.9159 17.5429 11.5987 16.6652 11.5987 16.6652C12.0349 16.1408 12.3818 15.5432 12.6244 14.8979C12.9013 14.1434 12.9937 13.2384 12.9937 12.8767V6.36937C13.0308 6.39246 13.5251 6.73144 13.5251 6.73144C13.5251 6.73144 14.2372 7.20472 15.3482 7.51293C16.1454 7.73225 17.2193 7.77842 17.2193 7.77842V4.62941C16.843 4.67174 16.0789 4.54861 15.2967 4.14421Z" fill="white"/>
</g>
<defs>
<clipPath id="clip0_80_62">
<rect width="19" height="19.865" fill="white" transform="translate(0 0.0456543)"/>
</clipPath>
</defs>
</svg>
