<svg width="21" height="22" viewBox="0 0 21 22" fill="none" xmlns="http://www.w3.org/2000/svg">
<path d="M14.328 2.48991C15.3424 2.49305 16.3144 2.91228 17.0317 3.65604C17.749 4.39979 18.1534 5.40764 18.1564 6.45947V14.3977C18.1534 15.4496 17.749 16.4574 17.0317 17.2012C16.3144 17.9449 15.3424 18.3641 14.328 18.3673H6.67201C5.65759 18.3641 4.68558 17.9449 3.96827 17.2012C3.25096 16.4574 2.84664 15.4496 2.84361 14.3977V6.45947C2.84664 5.40764 3.25096 4.39979 3.96827 3.65604C4.68558 2.91228 5.65759 2.49305 6.67201 2.48991H14.328ZM14.328 0.902344H6.67201C3.72422 0.902344 1.3125 3.40299 1.3125 6.45947V14.3977C1.3125 17.4542 3.72422 19.9549 6.67201 19.9549H14.328C17.2758 19.9549 19.6875 17.4542 19.6875 14.3977V6.45947C19.6875 3.40299 17.2758 0.902344 14.328 0.902344Z" fill="white"/>
<path d="M15.4764 6.45944C15.2493 6.45944 15.0273 6.38961 14.8384 6.25876C14.6495 6.12792 14.5023 5.94194 14.4154 5.72436C14.3285 5.50677 14.3057 5.26734 14.3501 5.03635C14.3944 4.80536 14.5037 4.59319 14.6644 4.42665C14.825 4.26012 15.0296 4.14671 15.2524 4.10076C15.4752 4.05482 15.7061 4.0784 15.9159 4.16852C16.1258 4.25865 16.3051 4.41128 16.4313 4.6071C16.5575 4.80292 16.6249 5.03315 16.6249 5.26866C16.6252 5.42513 16.5957 5.58013 16.5381 5.72475C16.4805 5.86938 16.3959 6.00078 16.2892 6.11142C16.1825 6.22206 16.0558 6.30976 15.9163 6.36949C15.7768 6.42921 15.6273 6.45978 15.4764 6.45944ZM10.5 7.25302C11.1057 7.25302 11.6979 7.43926 12.2015 7.78819C12.7052 8.13713 13.0977 8.63308 13.3295 9.21334C13.5613 9.7936 13.622 10.4321 13.5038 11.0481C13.3856 11.6641 13.0939 12.2299 12.6656 12.674C12.2373 13.1181 11.6916 13.4206 11.0975 13.5431C10.5034 13.6656 9.88761 13.6028 9.32798 13.3624C8.76836 13.1221 8.29004 12.715 7.95351 12.1928C7.61699 11.6706 7.43737 11.0566 7.43737 10.4286C7.43823 9.58664 7.76118 8.77945 8.33535 8.18411C8.90952 7.58877 9.68801 7.25392 10.5 7.25302ZM10.5 5.66545C9.59144 5.66545 8.70329 5.9448 7.94785 6.46818C7.19241 6.99156 6.60362 7.73546 6.25593 8.60581C5.90824 9.47615 5.81727 10.4339 5.99452 11.3578C6.17177 12.2818 6.60928 13.1305 7.25173 13.7966C7.89418 14.4628 8.71271 14.9164 9.60381 15.1002C10.4949 15.284 11.4186 15.1896 12.258 14.8291C13.0974 14.4686 13.8148 13.8581 14.3196 13.0748C14.8243 12.2915 15.0938 11.3706 15.0938 10.4286C15.0938 9.16532 14.6098 7.9538 13.7483 7.06054C12.8868 6.16728 11.7183 5.66545 10.5 5.66545Z" fill="white"/>
</svg>
