<svg width="19" height="20" viewBox="0 0 19 20" fill="none" xmlns="http://www.w3.org/2000/svg">
<g clip-path="url(#clip0_80_64)">
<path fill-rule="evenodd" clip-rule="evenodd" d="M15.3904 3.3145C14.6219 2.51727 13.7089 1.88553 12.7039 1.45563C11.699 1.02574 10.622 0.806182 9.53488 0.80961C4.97266 0.80961 1.25875 4.64121 1.25689 9.35165C1.25488 10.8516 1.63619 12.3252 2.36201 13.6227L1.1875 18.0476L5.57568 16.8598C6.79035 17.5421 8.15008 17.8992 9.53154 17.8987H9.53488C14.0967 17.8987 17.8103 14.0667 17.8125 9.35665C17.8153 8.23332 17.6025 7.12063 17.1867 6.08333C16.7709 5.04603 16.1603 4.10484 15.3904 3.3145ZM9.53488 16.4569H9.53191C8.3004 16.4573 7.09127 16.1156 6.03027 15.4673L5.77904 15.3134L3.17508 16.0183L3.87014 13.3983L3.70648 13.129C3.01788 11.9986 2.65304 10.6887 2.65443 9.35165C2.65443 5.43732 5.7423 2.25252 9.53748 2.25252C11.3581 2.24915 13.1054 2.99573 14.3951 4.32805C15.6849 5.66037 16.4114 7.46933 16.415 9.35703C16.4135 13.2718 13.3271 16.4569 9.53488 16.4569ZM13.3085 11.1397C13.1018 11.0327 12.0839 10.5164 11.8954 10.4452C11.7069 10.374 11.5677 10.3382 11.4301 10.5522C11.2924 10.7661 10.8957 11.2447 10.7751 11.389C10.6545 11.5333 10.5339 11.5491 10.3272 11.4421C10.1205 11.3352 9.45361 11.1101 8.66355 10.3828C8.04865 9.81684 7.63377 9.11809 7.51316 8.90454C7.39256 8.69099 7.50017 8.57517 7.60371 8.46897C7.69685 8.37316 7.81041 8.21964 7.91394 8.09497C8.01748 7.9703 8.05199 7.88103 8.12064 7.73866C8.1893 7.5963 8.15516 7.47163 8.10357 7.36505C8.05199 7.25846 7.63822 6.20764 7.46603 5.78015C7.29793 5.36382 7.1276 5.42039 7.00068 5.41385C6.88008 5.40769 6.74092 5.40615 6.60398 5.40615C6.4993 5.40898 6.39631 5.43415 6.30143 5.48009C6.20655 5.52604 6.12182 5.59177 6.05254 5.67318C5.86291 5.88712 5.32853 6.40426 5.32853 7.45393C5.32853 8.5036 6.07072 9.51941 6.17314 9.66178C6.27557 9.80414 7.63154 11.96 9.70633 12.8847C10.0916 13.0557 10.4852 13.2058 10.8857 13.3341C11.3811 13.4965 11.832 13.4738 12.1882 13.4187C12.5856 13.3576 13.4128 12.9024 13.5846 12.4037C13.7564 11.905 13.7568 11.4779 13.7052 11.389C13.6537 11.3002 13.5156 11.2463 13.3085 11.1397Z" fill="white"/>
</g>
<defs>
<clipPath id="clip0_80_64">
<rect width="19" height="19.865" fill="white" transform="translate(0 0.0456543)"/>
</clipPath>
</defs>
</svg>
