<svg xmlns="http://www.w3.org/2000/svg" width="31" height="31" fill="none" viewBox="0 0 31 31"><path fill="#fff" d="M25.7814 5.16181C24.4444 3.81128 22.8519 2.74049 21.0967 2.01188C19.3416 1.28327 17.4589 0.911435 15.5585 0.918056C7.596 0.918056 1.10641 7.40764 1.10641 15.3701C1.10641 17.9222 1.77725 20.4014 3.03141 22.5889L0.989746 30.0847L8.646 28.0722C10.7606 29.2243 13.1377 29.8368 15.5585 29.8368C23.521 29.8368 30.0106 23.3472 30.0106 15.3847C30.0106 11.5201 28.5085 7.88889 25.7814 5.16181ZM15.5585 27.3868C13.4002 27.3868 11.2856 26.8035 9.4335 25.7097L8.996 25.4472L4.446 26.6431L5.65641 22.2097L5.36475 21.7576C4.16563 19.8428 3.52891 17.6295 3.52725 15.3701C3.52725 8.74931 8.92308 3.35347 15.5439 3.35347C18.7522 3.35347 21.771 4.60764 24.0314 6.88264C25.1507 7.99675 26.0376 9.32194 26.6409 10.7814C27.2442 12.2408 27.5519 13.8055 27.546 15.3847C27.5752 22.0056 22.1793 27.3868 15.5585 27.3868ZM22.1502 18.4035C21.7856 18.2285 20.0064 17.3535 19.6856 17.2222C19.3502 17.1056 19.1168 17.0472 18.8689 17.3972C18.621 17.7618 17.9356 18.5785 17.7314 18.8118C17.5272 19.0597 17.3085 19.0889 16.9439 18.8993C16.5793 18.7243 15.4127 18.3306 14.0418 17.1056C12.9627 16.1431 12.2481 14.9618 12.0293 14.5972C11.8252 14.2326 12.0002 14.0431 12.1897 13.8535C12.3502 13.6931 12.5543 13.4306 12.7293 13.2264C12.9043 13.0222 12.9772 12.8618 13.0939 12.6285C13.2106 12.3806 13.1522 12.1764 13.0647 12.0014C12.9772 11.8264 12.2481 10.0472 11.9564 9.31806C11.6647 8.61806 11.3585 8.70556 11.1397 8.69097H10.4397C10.1918 8.69097 9.81266 8.77847 9.47725 9.14306C9.15641 9.50764 8.22308 10.3826 8.22308 12.1618C8.22308 13.941 9.521 15.6618 9.696 15.8951C9.871 16.1431 12.2481 19.7889 15.8647 21.3493C16.7252 21.7285 17.396 21.9472 17.921 22.1076C18.7814 22.3847 19.5689 22.341 20.196 22.2535C20.896 22.1514 22.3397 21.3785 22.6314 20.5326C22.9377 19.6868 22.9377 18.9722 22.8356 18.8118C22.7335 18.6514 22.5147 18.5785 22.1502 18.4035Z"/></svg>